<mxfile host="app.diagrams.net" modified="2021-01-26T02:33:34.365Z" agent="5.0 (Windows)" etag="4LLu9_xZmTekNNaWNIXx" version="14.2.7" type="github">
  <diagram id="0oVkjuSG6qMcGpGiwA_D" name="Page-1">
    <mxGraphModel dx="1550" dy="835" grid="1" gridSize="10" guides="1" tooltips="1" connect="1" arrows="1" fold="1" page="1" pageScale="1" pageWidth="850" pageHeight="1100" math="0" shadow="0">
      <root>
        <object label="" id="0">
          <mxCell />
        </object>
        <mxCell id="1" parent="0" />
        <mxCell id="qlT1Lg5kGuX2GO2Gmu2r-2" value="amq" style="rounded=0;whiteSpace=wrap;html=1;" vertex="1" parent="1">
          <mxGeometry x="40" y="60" width="120" height="60" as="geometry" />
        </mxCell>
        <mxCell id="qlT1Lg5kGuX2GO2Gmu2r-16" style="edgeStyle=orthogonalEdgeStyle;rounded=0;orthogonalLoop=1;jettySize=auto;html=1;exitX=0.5;exitY=1;exitDx=0;exitDy=0;entryX=0.5;entryY=0;entryDx=0;entryDy=0;" edge="1" parent="1" source="qlT1Lg5kGuX2GO2Gmu2r-3" target="qlT1Lg5kGuX2GO2Gmu2r-7">
          <mxGeometry relative="1" as="geometry">
            <Array as="points">
              <mxPoint x="260" y="130" />
              <mxPoint x="260" y="130" />
            </Array>
          </mxGeometry>
        </mxCell>
        <mxCell id="qlT1Lg5kGuX2GO2Gmu2r-3" value="&lt;div&gt;accp_entry&lt;/div&gt;&lt;div&gt;记帐接口转换&lt;br&gt;&lt;/div&gt;" style="shape=hexagon;html=1;whiteSpace=wrap;perimeter=hexagonPerimeter;strokeWidth=2;rounded=0;" vertex="1" parent="1">
          <mxGeometry x="230" y="67.5" width="60" height="45" as="geometry" />
        </mxCell>
        <mxCell id="qlT1Lg5kGuX2GO2Gmu2r-6" value="&lt;div&gt;accp_account&lt;/div&gt;&lt;div&gt;会计配置服务&lt;br&gt;&lt;/div&gt;" style="shape=hexagon;html=1;whiteSpace=wrap;perimeter=hexagonPerimeter;strokeWidth=2;rounded=0;" vertex="1" parent="1">
          <mxGeometry x="230" y="400" width="60" height="50" as="geometry" />
        </mxCell>
        <mxCell id="qlT1Lg5kGuX2GO2Gmu2r-7" value="&lt;div&gt;accp_access&lt;/div&gt;&lt;div&gt;帐务配置&lt;br&gt;&lt;/div&gt;" style="shape=hexagon;html=1;whiteSpace=wrap;perimeter=hexagonPerimeter;strokeWidth=2;rounded=0;" vertex="1" parent="1">
          <mxGeometry x="230" y="160" width="60" height="50" as="geometry" />
        </mxCell>
        <mxCell id="qlT1Lg5kGuX2GO2Gmu2r-8" value="accp_kernel" style="shape=hexagon;html=1;whiteSpace=wrap;perimeter=hexagonPerimeter;strokeWidth=2;rounded=0;" vertex="1" parent="1">
          <mxGeometry x="395" y="240" width="60" height="50" as="geometry" />
        </mxCell>
        <mxCell id="qlT1Lg5kGuX2GO2Gmu2r-9" value="accp_kernel" style="shape=hexagon;html=1;whiteSpace=wrap;perimeter=hexagonPerimeter;strokeWidth=2;rounded=0;" vertex="1" parent="1">
          <mxGeometry x="395" y="240" width="60" height="50" as="geometry" />
        </mxCell>
        <mxCell id="qlT1Lg5kGuX2GO2Gmu2r-10" value="&lt;div&gt;accp_record&lt;/div&gt;&lt;div&gt;会计服务&lt;br&gt;&lt;/div&gt;" style="shape=hexagon;html=1;whiteSpace=wrap;perimeter=hexagonPerimeter;strokeWidth=2;rounded=0;" vertex="1" parent="1">
          <mxGeometry x="570" y="240" width="60" height="50" as="geometry" />
        </mxCell>
        <mxCell id="qlT1Lg5kGuX2GO2Gmu2r-17" value="" style="edgeStyle=orthogonalEdgeStyle;rounded=0;orthogonalLoop=1;jettySize=auto;html=1;" edge="1" parent="1" source="qlT1Lg5kGuX2GO2Gmu2r-11" target="qlT1Lg5kGuX2GO2Gmu2r-10">
          <mxGeometry relative="1" as="geometry" />
        </mxCell>
        <mxCell id="qlT1Lg5kGuX2GO2Gmu2r-18" value="" style="edgeStyle=orthogonalEdgeStyle;rounded=0;orthogonalLoop=1;jettySize=auto;html=1;" edge="1" parent="1" source="qlT1Lg5kGuX2GO2Gmu2r-11" target="qlT1Lg5kGuX2GO2Gmu2r-14">
          <mxGeometry relative="1" as="geometry" />
        </mxCell>
        <mxCell id="qlT1Lg5kGuX2GO2Gmu2r-11" value="&lt;div&gt;accp_kernel&lt;/div&gt;帐务核心" style="shape=hexagon;html=1;whiteSpace=wrap;perimeter=hexagonPerimeter;strokeWidth=2;rounded=0;" vertex="1" parent="1">
          <mxGeometry x="395" y="240" width="60" height="50" as="geometry" />
        </mxCell>
        <mxCell id="qlT1Lg5kGuX2GO2Gmu2r-12" value="accp_confirm" style="shape=hexagon;html=1;whiteSpace=wrap;perimeter=hexagonPerimeter;strokeWidth=2;rounded=0;" vertex="1" parent="1">
          <mxGeometry x="395" y="350" width="60" height="50" as="geometry" />
        </mxCell>
        <mxCell id="qlT1Lg5kGuX2GO2Gmu2r-13" value="&lt;div&gt;trans_notify&lt;/div&gt;&lt;div&gt;通知&lt;br&gt;&lt;/div&gt;" style="shape=hexagon;html=1;whiteSpace=wrap;perimeter=hexagonPerimeter;strokeWidth=2;rounded=0;" vertex="1" parent="1">
          <mxGeometry x="570" y="350" width="60" height="50" as="geometry" />
        </mxCell>
        <mxCell id="qlT1Lg5kGuX2GO2Gmu2r-19" value="" style="edgeStyle=orthogonalEdgeStyle;rounded=0;orthogonalLoop=1;jettySize=auto;html=1;" edge="1" parent="1" source="qlT1Lg5kGuX2GO2Gmu2r-14" target="qlT1Lg5kGuX2GO2Gmu2r-13">
          <mxGeometry relative="1" as="geometry" />
        </mxCell>
        <mxCell id="qlT1Lg5kGuX2GO2Gmu2r-20" value="" style="edgeStyle=orthogonalEdgeStyle;rounded=0;orthogonalLoop=1;jettySize=auto;html=1;" edge="1" parent="1" source="qlT1Lg5kGuX2GO2Gmu2r-14" target="qlT1Lg5kGuX2GO2Gmu2r-15">
          <mxGeometry relative="1" as="geometry" />
        </mxCell>
        <mxCell id="qlT1Lg5kGuX2GO2Gmu2r-14" value="&lt;div&gt;accp_confirm&lt;/div&gt;记帐确认" style="shape=hexagon;html=1;whiteSpace=wrap;perimeter=hexagonPerimeter;strokeWidth=2;rounded=0;" vertex="1" parent="1">
          <mxGeometry x="395" y="350" width="60" height="50" as="geometry" />
        </mxCell>
        <mxCell id="qlT1Lg5kGuX2GO2Gmu2r-15" value="提现服务" style="shape=hexagon;html=1;whiteSpace=wrap;perimeter=hexagonPerimeter;strokeWidth=2;rounded=0;" vertex="1" parent="1">
          <mxGeometry x="395" y="470" width="60" height="50" as="geometry" />
        </mxCell>
      </root>
    </mxGraphModel>
  </diagram>
</mxfile>
